<mxfile host="app.diagrams.net" modified="2023-02-08T15:29:45.264Z" agent="5.0 (X11; Linux x86_64) AppleWebKit/534.24 (KHTML, like Gecko) Chrome/89.0.4389.116 Safari/534.24 Device/nabu Model/21051182C XiaoMi/MiuiBrowser/14.6.74" etag="6pH1Mhz17Jvom_emywqd" version="20.8.18" type="github">
  <diagram name="Page-1" id="gS3ex9L_udIpBnIDhwuf">
    <mxGraphModel dx="794" dy="508" grid="1" gridSize="10" guides="1" tooltips="1" connect="1" arrows="1" fold="1" page="1" pageScale="1" pageWidth="850" pageHeight="1100" math="0" shadow="0">
      <root>
        <mxCell id="0" />
        <mxCell id="1" parent="0" />
        <mxCell id="cT8fEpeuCc9Uhbuf6zlX-2" style="edgeStyle=orthogonalEdgeStyle;rounded=0;orthogonalLoop=1;jettySize=auto;html=1;entryX=0;entryY=0.5;entryDx=0;entryDy=0;" edge="1" parent="1" source="cT8fEpeuCc9Uhbuf6zlX-1" target="cT8fEpeuCc9Uhbuf6zlX-3">
          <mxGeometry relative="1" as="geometry">
            <mxPoint x="360" y="230" as="targetPoint" />
          </mxGeometry>
        </mxCell>
        <mxCell id="cT8fEpeuCc9Uhbuf6zlX-1" value="第一步" style="rounded=0;whiteSpace=wrap;html=1;" vertex="1" parent="1">
          <mxGeometry x="110" y="180" width="150" height="70" as="geometry" />
        </mxCell>
        <mxCell id="cT8fEpeuCc9Uhbuf6zlX-3" value="" style="rounded=0;whiteSpace=wrap;html=1;" vertex="1" parent="1">
          <mxGeometry x="350" y="185" width="120" height="60" as="geometry" />
        </mxCell>
      </root>
    </mxGraphModel>
  </diagram>
</mxfile>
